<?xml version="1.0" encoding="us-ascii" standalone="no"?><svg xmlns="http://www.w3.org/2000/svg" xmlns:xlink="http://www.w3.org/1999/xlink" contentStyleType="text/css" height="935px" preserveAspectRatio="none" style="width:622px;height:935px;background:#FAFAFA;" version="1.1" viewBox="0 0 622 935" width="622px" zoomAndPan="magnify"><defs/><g><rect fill="#FAFAFA" height="935" style="stroke:none;stroke-width:1.0;" width="622" x="0" y="0"/><text fill="#000000" font-family="sans-serif" font-size="14" font-weight="bold" lengthAdjust="spacing" textLength="165" x="221.5" y="24.9659">UDS2SOVD Architecture</text><!--cluster uds2sovd_proxy--><g id="cluster_uds2sovd_proxy"><rect fill="#FAFAD2" height="313" rx="2.5" ry="2.5" style="stroke:#181818;stroke-width:1.0;" width="138" x="7" y="47.0679"/><text fill="#000000" font-family="sans-serif" font-size="12" font-weight="bold" lengthAdjust="spacing" textLength="104" x="24" y="61.896">UDS2SOVD-Proxy</text></g><!--cluster doipserver_lib--><g id="cluster_doipserver_lib"><rect fill="#E0FFFF" height="731" rx="2.5" ry="2.5" style="stroke:#181818;stroke-width:1.0;" width="431" x="185" y="198.0679"/><text fill="#000000" font-family="sans-serif" font-size="12" font-weight="bold" lengthAdjust="spacing" textLength="84" x="358.5" y="212.896">doipserver-lib</text></g><!--cluster server--><g id="cluster_server"><rect fill="#F0FFFF" height="103" rx="2.5" ry="2.5" style="stroke:#181818;stroke-width:1.0;" width="181" x="233" y="257.0679"/><text fill="#000000" font-family="sans-serif" font-size="12" font-weight="bold" lengthAdjust="spacing" textLength="37" x="305" y="271.896">server</text></g><!--cluster doip--><g id="cluster_doip"><rect fill="#F0FFFF" height="294" rx="2.5" ry="2.5" style="stroke:#181818;stroke-width:1.0;" width="341" x="233" y="442.0679"/><text fill="#000000" font-family="sans-serif" font-size="12" font-weight="bold" lengthAdjust="spacing" textLength="27" x="390" y="456.896">doip</text></g><!--cluster handlers--><g id="cluster_handlers"><rect fill="none" height="103" rx="2.5" ry="2.5" style="stroke:#181818;stroke-width:1.0;" width="253" x="281" y="593.0679"/><text fill="#000000" font-family="sans-serif" font-size="12" font-weight="bold" lengthAdjust="spacing" textLength="53" x="381" y="607.896">handlers</text></g><!--cluster proxy--><g id="cluster_proxy"><rect fill="#F0FFFF" height="87" rx="2.5" ry="2.5" style="stroke:#181818;stroke-width:1.0;" width="112" x="307" y="810.0679"/><text fill="#000000" font-family="sans-serif" font-size="12" font-weight="bold" lengthAdjust="spacing" textLength="34" x="346" y="824.896">proxy</text></g><!--cluster config--><g id="cluster_config"><rect fill="#F0FFFF" height="87" rx="2.5" ry="2.5" style="stroke:#181818;stroke-width:1.0;" width="138" x="446" y="265.0679"/><text fill="#000000" font-family="sans-serif" font-size="12" font-weight="bold" lengthAdjust="spacing" textLength="38" x="496" y="279.896">config</text></g><!--entity app--><g id="elem_app"><rect fill="#F1F1F1" height="36.3441" rx="2.5" ry="2.5" style="stroke:#181818;stroke-width:0.5;" width="41" x="60.5" y="90.0679"/><text fill="#000000" font-family="sans-serif" font-size="12" lengthAdjust="spacing" textLength="21" x="70.5" y="112.896">app</text></g><!--entity app_config--><g id="elem_app_config"><rect fill="#F1F1F1" height="36.3441" rx="2.5" ry="2.5" style="stroke:#181818;stroke-width:0.5;" width="82" x="31" y="300.0679"/><text fill="#000000" font-family="sans-serif" font-size="12" lengthAdjust="spacing" textLength="62" x="41" y="322.896">config.toml</text></g><!--entity tcp--><g id="elem_tcp"><rect fill="#F1F1F1" height="36.3441" rx="2.5" ry="2.5" style="stroke:#181818;stroke-width:0.5;" width="37" x="276.5" y="300.0679"/><text fill="#000000" font-family="sans-serif" font-size="12" lengthAdjust="spacing" textLength="17" x="286.5" y="322.896">tcp</text></g><!--entity udp--><g id="elem_udp"><rect fill="#F1F1F1" height="36.3441" rx="2.5" ry="2.5" style="stroke:#181818;stroke-width:0.5;" width="41" x="348.5" y="300.0679"/><text fill="#000000" font-family="sans-serif" font-size="12" lengthAdjust="spacing" textLength="21" x="358.5" y="322.896">udp</text></g><!--entity tcp_dispatcher--><g id="elem_tcp_dispatcher"><rect fill="#F1F1F1" height="36.3441" rx="2.5" ry="2.5" style="stroke:#181818;stroke-width:0.5;" width="101" x="276.5" y="485.0679"/><text fill="#000000" font-family="sans-serif" font-size="12" lengthAdjust="spacing" textLength="81" x="286.5" y="507.896">tcp_dispatcher</text></g><!--entity udp_dispatcher--><g id="elem_udp_dispatcher"><rect fill="#F1F1F1" height="36.3441" rx="2.5" ry="2.5" style="stroke:#181818;stroke-width:0.5;" width="105" x="412.5" y="485.0679"/><text fill="#000000" font-family="sans-serif" font-size="12" lengthAdjust="spacing" textLength="85" x="422.5" y="507.896">udp_dispatcher</text></g><!--entity diagnostic--><g id="elem_diagnostic"><rect fill="#F1F1F1" height="36.3441" rx="2.5" ry="2.5" style="stroke:#181818;stroke-width:0.5;" width="77" x="324.5" y="636.0679"/><text fill="#000000" font-family="sans-serif" font-size="12" lengthAdjust="spacing" textLength="57" x="334.5" y="658.896">diagnostic</text></g><!--entity discovery--><g id="elem_discovery"><rect fill="#F1F1F1" height="36.3441" rx="2.5" ry="2.5" style="stroke:#181818;stroke-width:0.5;" width="73" x="436.5" y="636.0679"/><text fill="#000000" font-family="sans-serif" font-size="12" lengthAdjust="spacing" textLength="53" x="446.5" y="658.896">discovery</text></g><!--entity stub_proxy--><g id="elem_stub_proxy"><rect fill="#F1F1F1" height="36.3441" rx="2.5" ry="2.5" style="stroke:#181818;stroke-width:0.5;" width="80" x="323" y="845.0679"/><text fill="#000000" font-family="sans-serif" font-size="12" lengthAdjust="spacing" textLength="60" x="333" y="867.896">stub_proxy</text></g><!--entity config_provider--><g id="elem_config_provider"><rect fill="#F1F1F1" height="36.3441" rx="2.5" ry="2.5" style="stroke:#181818;stroke-width:0.5;" width="106" x="462" y="300.0679"/><text fill="#000000" font-family="sans-serif" font-size="12" lengthAdjust="spacing" textLength="86" x="472" y="322.896">config_provider</text></g><!--link uds2sovd_proxy to doipserver_lib--><!--link server to doip--><!--link doip to handlers--><!--link app to server--><g id="link_app_server"><path d="M89.73,126.2479 C98.6,141.6979 113.87,163.5379 134,174.0679 C154.34,184.7079 221.16,165.4479 237,182.0679 C247.1925,192.7604 252.6106,206.366 254.987,220.8034 C256.1752,228.0221 256.603,235.4487 256.4869,242.823 C256.4289,246.5102 256.2349,250.1843 255.932,253.8128 C255.8563,254.72 256.363,249.6533 256.2741,250.5542 " fill="none" id="app-to-server" style="stroke:#333333;stroke-width:1.0;"/><polygon fill="#333333" points="255.6848,256.5252,260.5494,247.9615,256.1759,251.5494,252.5881,247.1759,255.6848,256.5252" style="stroke:#333333;stroke-width:1.0;"/><text fill="#000000" font-family="sans-serif" font-size="12" lengthAdjust="spacing" textLength="65" x="135" y="169.896">instantiates</text></g><!--link app to app_config--><g id="link_app_app_config"><path d="M74.14,126.1679 C70.98,134.9479 67.58,145.9079 66,156.0679 C57.91,208.0279 64.0751,264.5606 68.3751,294.0806 " fill="none" id="app-to-app_config" style="stroke:#333333;stroke-width:1.0;"/><polygon fill="#333333" points="69.24,300.0179,71.9009,290.5353,68.5193,295.0701,63.9845,291.6885,69.24,300.0179" style="stroke:#333333;stroke-width:1.0;"/><text fill="#000000" font-family="sans-serif" font-size="12" lengthAdjust="spacing" textLength="26" x="67" y="169.896">uses</text></g><!--link app to config_provider--><g id="link_app_config_provider"><path d="M101.63,124.4679 C102.74,125.0579 103.87,125.5879 105,126.0679 C230.33,179.0679 289.13,112.3679 406,182.0679 C454.64,211.0779 487.7951,264.9945 503.4851,294.3945 " fill="none" id="app-to-config_provider" style="stroke:#333333;stroke-width:1.0;"/><polygon fill="#333333" points="506.31,299.6879,505.6015,289.8646,503.9559,295.2768,498.5437,293.6311,506.31,299.6879" style="stroke:#333333;stroke-width:1.0;"/><text fill="#000000" font-family="sans-serif" font-size="12" lengthAdjust="spacing" textLength="102" x="386" y="169.896">gets server_config</text></g><!--link tcp to tcp_dispatcher--><g id="link_tcp_tcp_dispatcher"><path d="M298.01,336.2879 C304.12,371.2479 316.896,444.3077 322.986,479.1177 " fill="none" id="tcp-to-tcp_dispatcher" style="stroke:#333333;stroke-width:1.0;"/><polygon fill="#333333" points="324.02,485.0279,326.4092,475.4732,323.1583,480.1027,318.5289,476.8519,324.02,485.0279" style="stroke:#333333;stroke-width:1.0;"/><text fill="#000000" font-family="sans-serif" font-size="12" lengthAdjust="spacing" textLength="50" x="328" y="397.896">forwards</text><text fill="#000000" font-family="sans-serif" font-size="12" lengthAdjust="spacing" textLength="82" x="312" y="414.2401">TCP messages</text></g><!--link udp to udp_dispatcher--><g id="link_udp_udp_dispatcher"><path d="M378.03,336.2879 C396.37,371.2479 435.0128,444.9046 453.2728,479.7146 " fill="none" id="udp-to-udp_dispatcher" style="stroke:#333333;stroke-width:1.0;"/><polygon fill="#333333" points="456.06,485.0279,455.4215,475.1998,453.7374,480.6001,448.337,478.916,456.06,485.0279" style="stroke:#333333;stroke-width:1.0;"/><text fill="#000000" font-family="sans-serif" font-size="12" lengthAdjust="spacing" textLength="50" x="437.5" y="397.896">forwards</text><text fill="#000000" font-family="sans-serif" font-size="12" lengthAdjust="spacing" textLength="85" x="420" y="414.2401">UDP messages</text></g><!--reverse link tcp_dispatcher to diagnostic--><g id="link_tcp_dispatcher_diagnostic"><path d="M332.5396,526.99 C339.4496,555.58 351.86,606.9579 358.81,635.7179 " fill="none" id="tcp_dispatcher-backto-diagnostic" style="stroke:#333333;stroke-width:1.0;"/><polygon fill="#333333" points="331.13,521.1579,329.3563,530.8457,332.3046,526.018,337.1324,528.9663,331.13,521.1579" style="stroke:#333333;stroke-width:1.0;"/><text fill="#000000" font-family="sans-serif" font-size="12" lengthAdjust="spacing" textLength="84" x="342" y="564.896">registered with</text></g><!--reverse link udp_dispatcher to discovery--><g id="link_udp_dispatcher_discovery"><path d="M466.2406,527.1493 C467.7706,555.7393 470.52,606.9579 472.07,635.7179 " fill="none" id="udp_dispatcher-backto-discovery" style="stroke:#333333;stroke-width:1.0;"/><polygon fill="#333333" points="465.92,521.1579,462.4067,530.3588,466.1872,526.1508,470.3952,529.9313,465.92,521.1579" style="stroke:#333333;stroke-width:1.0;"/><text fill="#000000" font-family="sans-serif" font-size="12" lengthAdjust="spacing" textLength="84" x="469" y="564.896">registered with</text></g><!--link diagnostic to stub_proxy--><g id="link_diagnostic_stub_proxy"><path d="M363,672.3579 C363,711.4179 363,800.0979 363,838.9679 " fill="none" id="diagnostic-to-stub_proxy" style="stroke:#333333;stroke-width:1.0;"/><polygon fill="#333333" points="363,844.9679,367,835.9679,363,839.9679,359,835.9679,363,844.9679" style="stroke:#333333;stroke-width:1.0;"/><text fill="#000000" font-family="sans-serif" font-size="12" lengthAdjust="spacing" textLength="50" x="394" y="773.896">forwards</text><text fill="#000000" font-family="sans-serif" font-size="12" lengthAdjust="spacing" textLength="110" x="364" y="790.2401">diagnostic payloads</text></g><!--SRC=[XLLHRzem47xthxZHXxOFWOv9Uq1J9GJjLAbggq6hJTk4J6mI2yUsR8UKJlptdPC0QGfjyf3axhllpdUVdK_6qYIZa3l-nAqNCPKt2z2AaDufm4YRjHL9wk4iFeV-HVyhcfItOfvxRHru3JxbS1LBOHo7QvqhHhq8uHFEIz_T_VHcT0KB8VcPEmScN1NE6HJ2fuWH3Wfjbx3G5YXZ8iHJIOH2GrQoWUK9jKoe1E9THRfGtBfKc2uXqq1Yh4uipO0gLcQcSQmpGzKwn24Hju9A1zHo_6BeNr4XwLnomAgv3J44GPa3lIW9XeR6-BWLCLUuEkoF2yNqknTGf29E0PFkIQWdtrBlZHlqUaLHT6aPtTKswScAmVLkiHLtawi8AIwnHG_Zdr7D7jqmhhnO26u7TUA0WjCU8Lvuv7ySJ_gJ-wSn36sS2izZdrkEJct26ERQUvrXUoqwoW6ufL26XeQ4DcY5z1E_HgA0e2gHl06PqtYPs32-aPOuXvFhORWR2COND9V-6iS_4IySFlSRpg6rkgWZlvHNmucBMTA47qzUKq_vinzAaQWCImNi2Ww3a3eQEjlrHmzMFwyxG1tapFMTNh6P2IOukGt2-AubjlA7Ph-ubBg0VmJmslK0EjIOCXgVRLUirK8aNUoat49cbOri6gKm7UHkLzn6KinBvDuqGrDTocXDrTly5QoCgbxXPFY2iwoHBRIFJUUGFMUrVTFc3wNiQlg8UuORqb2FShF7qdm4IN73ITmRPSxjHoDXkpn14wKT7ZMTun0NQspCUe_O75whsMcXbi0xgtK-drTAETAuQj8bM_NwBbq52OGhmUfvjcnr6fHEIwdHxrGmLEbVXgTOTDbI3wbbSGX5og6sFTkk4uAAXGWj5SK0X7Autxp0uy_jd7jP3yB1ltUqwXz0mlrMfTkDG50r9VYrUWRX_2xmb7P_r7Jq01bt3ZUBmwLNyDTAQi8VnmtuNXuGvUP06lmNu3-4s_e7GdPYgV7jF6_n-mIXKJjLD4jgW0nTIqsP8_y1]--></g></svg>